<svg width="60" height="60" viewBox="0 0 60 60" fill="none" xmlns="http://www.w3.org/2000/svg">
<path d="M53.9806 5.95494C50.1521 2.12446 45.1113 0 39.7196 0C34.3278 0 29.287 2.12446 25.4585 5.95494C22.4915 8.9485 20.5454 12.7468 19.8435 16.8348C19.7797 17.2532 19.7159 17.6717 19.684 18.0901C19.652 18.5086 19.6201 18.927 19.5882 19.3455C19.5563 19.6674 19.5563 20.0215 19.5563 20.3434V23.1116V24.367V25.6223V40.7189H34.5192H35.7635H37.0077C37.0396 40.3648 37.0396 40.0429 37.0396 39.6888V36.9528H35.7954H23.2891V25.5901V23.1116V20.3755C23.2891 20.0215 23.2891 19.6996 23.321 19.3455C23.3529 18.927 23.3848 18.5086 23.4486 18.0901C23.5124 17.6717 23.5762 17.2532 23.6719 16.8348C24.3419 13.6803 25.9371 10.8476 28.1066 8.62661C31.0736 5.63305 35.1892 3.76609 39.7196 3.76609C48.7802 3.76609 56.15 11.2017 56.15 20.3434C56.15 24.9142 54.2996 29.0665 51.3326 32.0601C49.1312 34.2811 46.3237 35.8584 43.1971 36.5343V36.8884V39.6567C43.1971 39.9142 43.1971 40.1395 43.1971 40.397C47.2489 39.6888 51.0135 37.7253 53.9806 34.7318C57.7771 30.9013 59.8828 25.7833 59.8828 20.3434C59.8828 14.9034 57.7771 9.78541 53.9806 5.95494Z" fill="#F7654A"/>
<path d="M23.2891 23.0794H24.5334H25.7776H37.0397V34.442V35.6974V36.9528V39.6888C37.0397 40.0429 37.0397 40.3648 37.0078 40.7189C36.9759 41.1373 36.944 41.5558 36.8801 41.9742C36.8163 42.3927 36.7525 42.8111 36.6568 43.2296C35.9868 46.3841 34.3916 49.2167 32.2222 51.4378C29.2551 54.4313 25.1395 56.2983 20.6092 56.2983C11.5485 56.2983 4.17872 48.8627 4.17872 39.721C4.17872 35.1502 6.02914 30.9978 8.99619 28.0043C11.1976 25.7833 14.0051 24.206 17.1317 23.53V20.4077C17.1317 20.1502 17.1317 19.9249 17.1317 19.6674C13.0799 20.3755 9.31523 22.339 6.34818 25.3326C2.51972 29.0987 0.414062 34.2167 0.414062 39.6566C0.414062 45.0966 2.51972 50.1824 6.31627 54.0451C10.1128 57.8755 15.1855 60 20.5773 60C25.969 60 31.0098 57.8755 34.8383 54.0451C38.4115 50.4399 40.4853 45.7081 40.7086 40.6545C40.7086 40.4936 40.7086 40.3326 40.7405 40.1717C40.7405 40.0751 40.7405 40.0107 40.7405 39.9142C40.7405 39.8176 40.7405 39.7532 40.7405 39.6566V36.8884V19.3133H25.7776H24.5334H23.2891C23.2572 19.6674 23.2572 19.9893 23.2572 20.3433L23.2891 23.0794Z" fill="#F7654A"/>
</svg>
